PathFileType	4	(X/Y/Z)	./resultDataOpenSim/trcMotMarkerGrf/sub06/qtm-03-02.trc
DataRate	CameraRate	NumFrames	NumMarkers	Units	OrigDataRate	OrigDataStartFrame	OrigNumFrames
250.000000	250.000000	8	24	m	250.000000	189	502
Frame#	Time	L.Toe.Tip			R.Toe.Tip			L.Ankle.Lat			R.Ankle.Lat			L.Ankle.Med			R.Ankle.Med			L.Heel			R.Heel			L.Knee.Lat			R.Knee.Lat			L.Knee.Med			R.Knee.Med			L.Thigh.Upper			R.Thigh.Upper			L.ASIS			R.ASIS			V.Sacral			L.Acromium			R.Acromium			C7			L.Elbow			R.Elbow			L.Wrist.Lat			R.Wrist.Lat
		X1	Y1	Z1	X2	Y2	Z2	X3	Y3	Z3	X4	Y4	Z4	X5	Y5	Z5	X6	Y6	Z6	X7	Y7	Z7	X8	Y8	Z8	X9	Y9	Z9	X10	Y10	Z10	X11	Y11	Z11	X12	Y12	Z12	X13	Y13	Z13	X14	Y14	Z14	X15	Y15	Z15	X16	Y16	Z16	X17	Y17	Z17	X18	Y18	Z18	X19	Y19	Z19	X20	Y20	Z20	X21	Y21	Z21	X22	Y22	Z22	X23	Y23	Z23	X24	Y24	Z24

189	0.752	0.087825632	-0.015387435	-0.042691984	-0.46376148	0.079313309	0.10921289	-0.033534517	0.015364296	-0.067774613	-0.47899043	0.21638919	0.13216895	-0.035846663	0.030587425	0.019654699	-0.43849927	0.20423191	0.052581582	-0.11171031	-0.008785468	-0.024138203	-0.50586015	0.25920451	0.068490788	0.067631452	0.37465521	-0.096513267	-0.12440355	0.33156186	0.18676987	0.041241941	0.37581692	0.023203689	-0.12726973	0.31858536	0.053753996	-0.083680449	0.7418588	-0.16373764	-0.1624415	0.69373287	0.16824477	-0.024810808	0.77547589	-0.1061646	-0.062950788	0.75754734	0.1434966	-0.22133958	0.84658487	0.0057119675	-0.092426271	1.2399316	-0.18621738	-0.1015772	1.2464084	0.17883086	-0.17084008	1.2885443	-0.008270964	-0.19803101	0.93930944	-0.21196397	-0.18808264	0.93796367	0.25373115	-0.11388339	0.71679943	-0.27240726	-0.012217108	0.76210798	0.27098466
190	0.756	0.087759147	-0.015384748	-0.042729936	-0.44598829	0.079836288	0.11054487	-0.033539264	0.015418175	-0.067747175	-0.46345064	0.21667934	0.13255454	-0.035940516	0.030644653	0.019669173	-0.42312881	0.20465173	0.052939265	-0.11176179	-0.0087189583	-0.024115078	-0.49156676	0.25875957	0.068576951	0.06882328	0.37461055	-0.096434542	-0.11041165	0.33406946	0.18717788	0.043326529	0.37599453	0.02330844	-0.11358004	0.32090814	0.054154987	-0.079184096	0.74324532	-0.16413468	-0.15583018	0.69578617	0.16812985	-0.019175897	0.77702057	-0.10676101	-0.058800188	0.76018513	0.14461148	-0.21552493	0.84890791	0.0047553604	-0.085415162	1.2422138	-0.18584528	-0.09557348	1.2483683	0.17924079	-0.16422079	1.290571	-0.0080032827	-0.18942775	0.94058841	-0.21213139	-0.18338155	0.94027962	0.25317827	-0.10189288	0.71916042	-0.27185111	-0.010683175	0.76165913	0.27124207
191	0.76	0.087673833	-0.015391297	-0.042763482	-0.42797306	0.080199993	0.11178221	-0.033551458	0.015475862	-0.067727185	-0.4479397	0.21664626	0.13291987	-0.036070404	0.030710815	0.019686896	-0.40770441	0.20487928	0.053371436	-0.11181029	-0.0086532918	-0.02410589	-0.47723325	0.258026	0.068708244	0.069933357	0.3745658	-0.096251662	-0.096460271	0.33681629	0.18752446	0.045225384	0.37615947	0.023467512	-0.099801914	0.32330746	0.054555628	-0.074492173	0.74475606	-0.16451307	-0.14911651	0.69794359	0.16809674	-0.013643936	0.77873525	-0.10729888	-0.054219176	0.76270408	0.1454449	-0.20997024	0.85121554	0.0037965214	-0.078575653	1.244636	-0.18545308	-0.08953874	1.2503689	0.17964098	-0.15765643	1.2926451	-0.0076782292	-0.18081406	0.94197626	-0.2123493	-0.17866879	0.94270803	0.25268181	-0.089870482	0.72166392	-0.27123999	-0.0093142991	0.7613661	0.2715138
192	0.764	0.087599904	-0.01539412	-0.042787216	-0.40978568	0.080420827	0.11297706	-0.033574111	0.015541431	-0.067716602	-0.43249285	0.21629244	0.13325505	-0.036216564	0.030796637	0.019706766	-0.39215978	0.20492104	0.05391944	-0.11185607	-0.0085851921	-0.024110701	-0.46287853	0.25697944	0.068884261	0.071011266	0.37454159	-0.095962182	-0.082569122	0.33979209	0.18782947	0.046878318	0.3763263	0.023714538	-0.085831331	0.32585301	0.054874417	-0.069538737	0.7463951	-0.16486444	-0.14226941	0.70021548	0.16813675	-0.0082316849	0.78059691	-0.1077728	-0.048974463	0.76504984	0.14580708	-0.20463307	0.85348901	0.0029988423	-0.071878571	1.2471765	-0.1850297	-0.08345257	1.2524089	0.18002882	-0.15113608	1.2947577	-0.0073033203	-0.17217841	0.94346242	-0.21260822	-0.17395184	0.945244	0.25223553	-0.077786264	0.72431838	-0.27057399	-0.0080819017	0.76122078	0.27180052
193	0.768	0.087554184	-0.015382677	-0.042802243	-0.39143677	0.080518015	0.11414864	-0.033596211	0.015625259	-0.067704631	-0.41703476	0.21568227	0.13360469	-0.036356863	0.030905924	0.019725397	-0.37644598	0.20479202	0.054573854	-0.11189836	-0.0085117526	-0.024123759	-0.44851198	0.25561395	0.069101426	0.072116212	0.37456283	-0.095579304	-0.068728636	0.34297804	0.18809372	0.048215823	0.37649113	0.024060515	-0.071542912	0.32859653	0.05500254	-0.064338635	0.74813209	-0.1651647	-0.13529878	0.70259997	0.16826112	-0.0028814826	0.78257783	-0.10819298	-0.04308084	0.7672398	0.14569307	-0.19948283	0.85570539	0.0025310688	-0.065277548	1.2498139	-0.18457154	-0.077308886	1.2544803	0.18040467	-0.14464875	1.2969016	-0.0068850786	-0.16352124	0.94503589	-0.21290634	-0.16924839	0.94787447	0.25182949	-0.065630143	0.7271239	-0.26985398	-0.0069119453	0.76121278	0.27210107
194	0.772	0.087524688	-0.015361201	-0.042811268	-0.37286918	0.08051963	0.11532132	-0.033603595	0.015734474	-0.067676898	-0.40138059	0.21493488	0.13407265	-0.03648592	0.031034611	0.01974371	-0.36056061	0.20450836	0.055206575	-0.11193329	-0.0084337565	-0.02413024	-0.43413635	0.25394276	0.069369006	0.073267126	0.37464112	-0.095124219	-0.05493484	0.34635484	0.18830833	0.049184947	0.37663879	0.024497801	-0.056932238	0.33156795	0.054904316	-0.05898232	0.7499158	-0.16538552	-0.12831457	0.7050576	0.16853543	0.0025091511	0.78465209	-0.10857459	-0.036661585	0.76931243	0.14518622	-0.19447848	0.85784264	0.0025420933	-0.058721684	1.252529	-0.18408826	-0.071118729	1.256567	0.18076942	-0.13818636	1.2990683	-0.0064318817	-0.15485283	0.94669026	-0.21324663	-0.16457108	0.95058139	0.25145045	-0.053440479	0.73006701	-0.26907863	-0.0057563934	0.76133973	0.27241644
195	0.776	0.087492817	-0.015338718	-0.042815207	-0.35401011	0.080452765	0.11653251	-0.033595388	0.015863488	-0.067625394	-0.38528329	0.21419515	0.13479071	-0.036608792	0.03117115	0.019761533	-0.3445809	0.20406423	0.055652706	-0.111958	-0.0083569544	-0.024113748	-0.41974911	0.25196784	0.069695063	0.074407492	0.37476878	-0.09461199	-0.041206912	0.34990675	0.18846446	0.04974134	0.3767484	0.02499456	-0.04222538	0.33481502	0.054673221	-0.053582142	0.751707	-0.16553429	-0.12148054	0.70753234	0.1690394	0.0080328092	0.78680259	-0.10893226	-0.029787408	0.77127997	0.1443423	-0.18953436	0.85989385	0.0030736684	-0.052186454	1.2553042	-0.18359095	-0.064897884	1.2586526	0.18112302	-0.13174752	1.3012489	-0.0059543989	-0.14617655	0.94841589	-0.21362014	-0.15992851	0.95334426	0.25108509	-0.041261187	0.73312785	-0.26824588	-0.0046092694	0.76160329	0.27274841
196	0.78	0.08745146	-0.015318581	-0.042815359	-0.33483869	0.080320358	0.11777302	-0.03359579	0.015995375	-0.067560351	-0.36863221	0.21352707	0.13580828	-0.036723221	0.031301767	0.019772466	-0.32866729	0.20343188	0.055858804	-0.11198288	-0.0082889656	-0.024080469	-0.4053532	0.24967557	0.07007375	0.075446488	0.37492923	-0.094053137	-0.027569517	0.35362006	0.18855797	0.049828695	0.37679125	0.025483508	-0.027759701	0.33839141	0.054428188	-0.048198141	0.75348991	-0.16564539	-0.11484259	0.71000889	0.16975449	0.013717728	0.78901285	-0.10927464	-0.022592096	0.77319245	0.14326598	-0.18449867	0.86188727	0.0039515032	-0.045700366	1.2581218	-0.18307891	-0.058655876	1.2607273	0.18146601	-0.12533448	1.3034338	-0.0054608263	-0.13749326	0.95019662	-0.21401338	-0.1553268	0.95614215	0.25072351	-0.029085596	0.73629342	-0.26735134	-0.003476322	0.76200133	0.27309887
